<mxfile host="Electron" agent="Mozilla/5.0 (Windows NT 10.0; Win64; x64) AppleWebKit/537.36 (KHTML, like Gecko) draw.io/28.0.4 Chrome/138.0.7204.97 Electron/37.2.1 Safari/537.36" version="28.0.4">
  <diagram name="Page-1" id="zJNJHvJM2UALrEBQixD4">
    <mxGraphModel dx="2934" dy="1252" grid="1" gridSize="10" guides="1" tooltips="1" connect="1" arrows="1" fold="1" page="1" pageScale="1" pageWidth="850" pageHeight="1100" math="0" shadow="0">
      <root>
        <mxCell id="0" />
        <mxCell id="1" parent="0" />
        <mxCell id="Qx_ht0-6rFyomk5N5odI-1" value="" style="points=[[0.35,0,0],[0.98,0.51,0],[1,0.71,0],[0.67,1,0],[0,0.795,0],[0,0.65,0]];verticalLabelPosition=bottom;sketch=0;html=1;verticalAlign=top;aspect=fixed;align=center;pointerEvents=1;shape=mxgraph.cisco19.user;fillColor=#005073;strokeColor=none;fontStyle=0;strokeWidth=19;" vertex="1" parent="1">
          <mxGeometry x="685.52" y="68.88" width="101.12" height="101.12" as="geometry" />
        </mxCell>
        <mxCell id="Qx_ht0-6rFyomk5N5odI-2" style="edgeStyle=orthogonalEdgeStyle;rounded=0;orthogonalLoop=1;jettySize=auto;html=1;exitX=0;exitY=0.21;exitDx=0;exitDy=0;exitPerimeter=0;entryX=1;entryY=0.25;entryDx=0;entryDy=0;" edge="1" parent="1" source="Qx_ht0-6rFyomk5N5odI-3" target="Qx_ht0-6rFyomk5N5odI-54">
          <mxGeometry relative="1" as="geometry" />
        </mxCell>
        <mxCell id="Qx_ht0-6rFyomk5N5odI-3" value="" style="outlineConnect=0;dashed=0;verticalLabelPosition=bottom;verticalAlign=top;align=center;html=1;shape=mxgraph.aws3.ec2;fillColor=#F58534;gradientColor=none;" vertex="1" parent="1">
          <mxGeometry x="1008.6700000000001" y="410" width="95.89" height="116.57" as="geometry" />
        </mxCell>
        <mxCell id="Qx_ht0-6rFyomk5N5odI-4" style="edgeStyle=orthogonalEdgeStyle;rounded=0;orthogonalLoop=1;jettySize=auto;html=1;exitX=0.71;exitY=0.91;exitDx=0;exitDy=0;exitPerimeter=0;" edge="1" parent="1" source="Qx_ht0-6rFyomk5N5odI-5" target="Qx_ht0-6rFyomk5N5odI-11">
          <mxGeometry relative="1" as="geometry" />
        </mxCell>
        <mxCell id="Qx_ht0-6rFyomk5N5odI-5" value="" style="outlineConnect=0;dashed=0;verticalLabelPosition=bottom;verticalAlign=top;align=center;html=1;shape=mxgraph.aws3.route_53;fillColor=#F58536;gradientColor=none;" vertex="1" parent="1">
          <mxGeometry x="1003.02" y="54.440000000000055" width="107.19" height="130" as="geometry" />
        </mxCell>
        <mxCell id="Qx_ht0-6rFyomk5N5odI-6" value="Route 53" style="text;html=1;align=center;verticalAlign=middle;whiteSpace=wrap;rounded=0;fontStyle=1;fontSize=17;" vertex="1" parent="1">
          <mxGeometry x="1014.52" y="20" width="84.19" height="30" as="geometry" />
        </mxCell>
        <mxCell id="Qx_ht0-6rFyomk5N5odI-7" value="EC2 (Reverse Proxy)" style="text;html=1;align=center;verticalAlign=middle;whiteSpace=wrap;rounded=0;fontStyle=1;fontSize=17;" vertex="1" parent="1">
          <mxGeometry x="958.5699999999999" y="530" width="196.09" height="30" as="geometry" />
        </mxCell>
        <mxCell id="Qx_ht0-6rFyomk5N5odI-8" value="" style="outlineConnect=0;dashed=0;verticalLabelPosition=bottom;verticalAlign=top;align=center;html=1;shape=mxgraph.aws3.s3;fillColor=#E05243;gradientColor=none;" vertex="1" parent="1">
          <mxGeometry x="1135.52" y="869.0300000000002" width="106.85" height="129.89" as="geometry" />
        </mxCell>
        <mxCell id="Qx_ht0-6rFyomk5N5odI-9" value="RDS&lt;br&gt;(Write Master-Slave)" style="text;html=1;align=center;verticalAlign=middle;whiteSpace=wrap;rounded=0;fontStyle=1;fontSize=17;" vertex="1" parent="1">
          <mxGeometry x="671" y="1017" width="190" height="30" as="geometry" />
        </mxCell>
        <mxCell id="Qx_ht0-6rFyomk5N5odI-10" value="S3" style="text;html=1;align=center;verticalAlign=middle;whiteSpace=wrap;rounded=0;fontStyle=1;fontSize=17;" vertex="1" parent="1">
          <mxGeometry x="1179.85" y="992" width="84.19" height="30" as="geometry" />
        </mxCell>
        <mxCell id="Qx_ht0-6rFyomk5N5odI-11" value="" style="outlineConnect=0;dashed=0;verticalLabelPosition=bottom;verticalAlign=top;align=center;html=1;shape=mxgraph.aws3.cloudfront;fillColor=#F58536;gradientColor=none;" vertex="1" parent="1">
          <mxGeometry x="1195.52" y="250" width="106.21" height="129.12" as="geometry" />
        </mxCell>
        <mxCell id="Qx_ht0-6rFyomk5N5odI-12" style="edgeStyle=orthogonalEdgeStyle;rounded=0;orthogonalLoop=1;jettySize=auto;html=1;exitX=0.835;exitY=0.5;exitDx=0;exitDy=0;exitPerimeter=0;entryX=0.5;entryY=0;entryDx=0;entryDy=0;" edge="1" parent="1" source="Qx_ht0-6rFyomk5N5odI-13" target="Qx_ht0-6rFyomk5N5odI-39">
          <mxGeometry relative="1" as="geometry" />
        </mxCell>
        <mxCell id="Qx_ht0-6rFyomk5N5odI-13" value="" style="outlineConnect=0;dashed=0;verticalLabelPosition=bottom;verticalAlign=top;align=center;html=1;shape=mxgraph.aws3.elastic_load_balancing;fillColor=#F58534;gradientColor=none;" vertex="1" parent="1">
          <mxGeometry x="835.52" y="250" width="101.41" height="123.28" as="geometry" />
        </mxCell>
        <mxCell id="Qx_ht0-6rFyomk5N5odI-14" style="edgeStyle=orthogonalEdgeStyle;rounded=0;orthogonalLoop=1;jettySize=auto;html=1;exitX=0.98;exitY=0.51;exitDx=0;exitDy=0;exitPerimeter=0;entryX=0.29;entryY=0.5;entryDx=0;entryDy=0;entryPerimeter=0;" edge="1" parent="1" source="Qx_ht0-6rFyomk5N5odI-1" target="Qx_ht0-6rFyomk5N5odI-5">
          <mxGeometry relative="1" as="geometry" />
        </mxCell>
        <mxCell id="Qx_ht0-6rFyomk5N5odI-15" style="edgeStyle=orthogonalEdgeStyle;rounded=0;orthogonalLoop=1;jettySize=auto;html=1;exitX=0.5;exitY=1;exitDx=0;exitDy=0;exitPerimeter=0;" edge="1" parent="1" source="Qx_ht0-6rFyomk5N5odI-17" target="Qx_ht0-6rFyomk5N5odI-8">
          <mxGeometry relative="1" as="geometry" />
        </mxCell>
        <mxCell id="Qx_ht0-6rFyomk5N5odI-16" style="edgeStyle=orthogonalEdgeStyle;rounded=0;orthogonalLoop=1;jettySize=auto;html=1;exitX=0;exitY=0.79;exitDx=0;exitDy=0;exitPerimeter=0;" edge="1" parent="1" source="Qx_ht0-6rFyomk5N5odI-17">
          <mxGeometry relative="1" as="geometry">
            <mxPoint x="1045.52" y="930" as="targetPoint" />
            <Array as="points">
              <mxPoint x="1115.52" y="662" />
              <mxPoint x="1115.52" y="930" />
            </Array>
          </mxGeometry>
        </mxCell>
        <mxCell id="Qx_ht0-6rFyomk5N5odI-17" value="" style="outlineConnect=0;dashed=0;verticalLabelPosition=bottom;verticalAlign=top;align=center;html=1;shape=mxgraph.aws3.ec2;fillColor=#F58534;gradientColor=none;" vertex="1" parent="1">
          <mxGeometry x="1171.04" y="570" width="95.89" height="116.57" as="geometry" />
        </mxCell>
        <mxCell id="Qx_ht0-6rFyomk5N5odI-18" style="edgeStyle=orthogonalEdgeStyle;rounded=0;orthogonalLoop=1;jettySize=auto;html=1;exitX=1;exitY=0.79;exitDx=0;exitDy=0;exitPerimeter=0;" edge="1" parent="1" source="Qx_ht0-6rFyomk5N5odI-19" target="Qx_ht0-6rFyomk5N5odI-8">
          <mxGeometry relative="1" as="geometry">
            <Array as="points">
              <mxPoint x="951.52" y="850" />
              <mxPoint x="1188.52" y="850" />
            </Array>
          </mxGeometry>
        </mxCell>
        <mxCell id="Qx_ht0-6rFyomk5N5odI-73" style="edgeStyle=orthogonalEdgeStyle;rounded=0;orthogonalLoop=1;jettySize=auto;html=1;exitX=0;exitY=0.5;exitDx=0;exitDy=0;exitPerimeter=0;" edge="1" parent="1" source="Qx_ht0-6rFyomk5N5odI-19">
          <mxGeometry relative="1" as="geometry">
            <mxPoint x="504" y="881.3600000000001" as="targetPoint" />
          </mxGeometry>
        </mxCell>
        <mxCell id="Qx_ht0-6rFyomk5N5odI-74" style="edgeStyle=orthogonalEdgeStyle;rounded=0;orthogonalLoop=1;jettySize=auto;html=1;exitX=0;exitY=0.5;exitDx=0;exitDy=0;exitPerimeter=0;" edge="1" parent="1" source="Qx_ht0-6rFyomk5N5odI-19" target="Qx_ht0-6rFyomk5N5odI-72">
          <mxGeometry relative="1" as="geometry" />
        </mxCell>
        <mxCell id="Qx_ht0-6rFyomk5N5odI-19" value="" style="outlineConnect=0;dashed=0;verticalLabelPosition=bottom;verticalAlign=top;align=center;html=1;shape=mxgraph.aws3.ec2;fillColor=#F58534;gradientColor=none;" vertex="1" parent="1">
          <mxGeometry x="855.52" y="570" width="95.89" height="116.57" as="geometry" />
        </mxCell>
        <mxCell id="Qx_ht0-6rFyomk5N5odI-20" value="ELB" style="text;html=1;align=center;verticalAlign=middle;whiteSpace=wrap;rounded=0;fontStyle=1;fontSize=17;" vertex="1" parent="1">
          <mxGeometry x="751.3299999999999" y="299.55999999999995" width="84.19" height="30" as="geometry" />
        </mxCell>
        <mxCell id="Qx_ht0-6rFyomk5N5odI-21" value="CloudFront&lt;br&gt;(&lt;span style=&quot;background-color: transparent; color: light-dark(rgb(0, 0, 0), rgb(255, 255, 255));&quot;&gt;CDN)&lt;/span&gt;" style="text;html=1;align=center;verticalAlign=middle;whiteSpace=wrap;rounded=0;fontStyle=1;fontSize=17;" vertex="1" parent="1">
          <mxGeometry x="1315.52" y="299.55999999999995" width="84.19" height="30" as="geometry" />
        </mxCell>
        <mxCell id="Qx_ht0-6rFyomk5N5odI-22" style="edgeStyle=orthogonalEdgeStyle;rounded=0;orthogonalLoop=1;jettySize=auto;html=1;exitX=0.29;exitY=0.91;exitDx=0;exitDy=0;exitPerimeter=0;entryX=0.5;entryY=0;entryDx=0;entryDy=0;entryPerimeter=0;" edge="1" parent="1" source="Qx_ht0-6rFyomk5N5odI-5" target="Qx_ht0-6rFyomk5N5odI-13">
          <mxGeometry relative="1" as="geometry" />
        </mxCell>
        <mxCell id="Qx_ht0-6rFyomk5N5odI-23" style="edgeStyle=orthogonalEdgeStyle;rounded=0;orthogonalLoop=1;jettySize=auto;html=1;exitX=0;exitY=0.5;exitDx=0;exitDy=0;exitPerimeter=0;entryX=0.5;entryY=0;entryDx=0;entryDy=0;" edge="1" parent="1" source="Qx_ht0-6rFyomk5N5odI-3" target="Qx_ht0-6rFyomk5N5odI-41">
          <mxGeometry relative="1" as="geometry" />
        </mxCell>
        <mxCell id="Qx_ht0-6rFyomk5N5odI-24" style="edgeStyle=orthogonalEdgeStyle;rounded=0;orthogonalLoop=1;jettySize=auto;html=1;exitX=1;exitY=0.5;exitDx=0;exitDy=0;exitPerimeter=0;entryX=0.5;entryY=0;entryDx=0;entryDy=0;" edge="1" parent="1" source="Qx_ht0-6rFyomk5N5odI-3" target="Qx_ht0-6rFyomk5N5odI-40">
          <mxGeometry relative="1" as="geometry" />
        </mxCell>
        <mxCell id="Qx_ht0-6rFyomk5N5odI-25" value="EC2&amp;nbsp;&lt;div&gt;(Write API)&lt;/div&gt;" style="text;html=1;align=center;verticalAlign=middle;whiteSpace=wrap;rounded=0;fontStyle=1;fontSize=17;" vertex="1" parent="1">
          <mxGeometry x="761.04" y="686.5699999999999" width="170" height="30" as="geometry" />
        </mxCell>
        <mxCell id="Qx_ht0-6rFyomk5N5odI-26" value="EC2&amp;nbsp;&lt;div&gt;(Read API)&lt;/div&gt;" style="text;html=1;align=center;verticalAlign=middle;whiteSpace=wrap;rounded=0;fontStyle=1;fontSize=17;" vertex="1" parent="1">
          <mxGeometry x="1185.52" y="686.5699999999999" width="170" height="30" as="geometry" />
        </mxCell>
        <mxCell id="Qx_ht0-6rFyomk5N5odI-27" style="edgeStyle=orthogonalEdgeStyle;rounded=0;orthogonalLoop=1;jettySize=auto;html=1;exitX=1;exitY=0.79;exitDx=0;exitDy=0;exitPerimeter=0;entryX=1;entryY=0.5;entryDx=0;entryDy=0;entryPerimeter=0;" edge="1" parent="1" source="Qx_ht0-6rFyomk5N5odI-11" target="Qx_ht0-6rFyomk5N5odI-8">
          <mxGeometry relative="1" as="geometry">
            <Array as="points">
              <mxPoint x="1570" y="352" />
              <mxPoint x="1570" y="934" />
            </Array>
          </mxGeometry>
        </mxCell>
        <mxCell id="Qx_ht0-6rFyomk5N5odI-28" style="edgeStyle=orthogonalEdgeStyle;rounded=0;orthogonalLoop=1;jettySize=auto;html=1;exitX=1;exitY=0.5;exitDx=0;exitDy=0;exitPerimeter=0;" edge="1" parent="1" source="Qx_ht0-6rFyomk5N5odI-29" target="Qx_ht0-6rFyomk5N5odI-33">
          <mxGeometry relative="1" as="geometry" />
        </mxCell>
        <mxCell id="Qx_ht0-6rFyomk5N5odI-29" value="" style="outlineConnect=0;dashed=0;verticalLabelPosition=bottom;verticalAlign=top;align=center;html=1;shape=mxgraph.aws3.rds_db_instance;fillColor=#2E73B8;gradientColor=none;" vertex="1" parent="1">
          <mxGeometry x="725.52" y="901.03" width="80.96" height="107.95" as="geometry" />
        </mxCell>
        <mxCell id="Qx_ht0-6rFyomk5N5odI-30" value="" style="group" vertex="1" connectable="0" parent="1">
          <mxGeometry x="915.52" y="869.03" width="124.47999999999996" height="139.95000000000005" as="geometry" />
        </mxCell>
        <mxCell id="Qx_ht0-6rFyomk5N5odI-31" value="" style="outlineConnect=0;dashed=0;verticalLabelPosition=bottom;verticalAlign=top;align=center;html=1;shape=mxgraph.aws3.rds_db_instance_read_replica;fillColor=#2E73B8;gradientColor=none;" vertex="1" parent="Qx_ht0-6rFyomk5N5odI-30">
          <mxGeometry x="43.51999999999998" width="80.96" height="107.95" as="geometry" />
        </mxCell>
        <mxCell id="Qx_ht0-6rFyomk5N5odI-32" value="" style="outlineConnect=0;dashed=0;verticalLabelPosition=bottom;verticalAlign=top;align=center;html=1;shape=mxgraph.aws3.rds_db_instance_read_replica;fillColor=#2E73B8;gradientColor=none;" vertex="1" parent="Qx_ht0-6rFyomk5N5odI-30">
          <mxGeometry x="20" y="16" width="80.96" height="107.95" as="geometry" />
        </mxCell>
        <mxCell id="Qx_ht0-6rFyomk5N5odI-33" value="" style="outlineConnect=0;dashed=0;verticalLabelPosition=bottom;verticalAlign=top;align=center;html=1;shape=mxgraph.aws3.rds_db_instance_read_replica;fillColor=#2E73B8;gradientColor=none;" vertex="1" parent="Qx_ht0-6rFyomk5N5odI-30">
          <mxGeometry y="32" width="80.96" height="107.95" as="geometry" />
        </mxCell>
        <mxCell id="Qx_ht0-6rFyomk5N5odI-34" value="RDS&lt;br&gt;(Read Replicas)" style="text;html=1;align=center;verticalAlign=middle;whiteSpace=wrap;rounded=0;fontStyle=1;fontSize=17;" vertex="1" parent="1">
          <mxGeometry x="882.76" y="1020" width="190" height="30" as="geometry" />
        </mxCell>
        <mxCell id="Qx_ht0-6rFyomk5N5odI-35" style="edgeStyle=orthogonalEdgeStyle;rounded=0;orthogonalLoop=1;jettySize=auto;html=1;exitX=0;exitY=0.5;exitDx=0;exitDy=0;exitPerimeter=0;entryX=0.5;entryY=0.02;entryDx=0;entryDy=0;entryPerimeter=0;" edge="1" parent="1" source="Qx_ht0-6rFyomk5N5odI-19" target="Qx_ht0-6rFyomk5N5odI-29">
          <mxGeometry relative="1" as="geometry" />
        </mxCell>
        <mxCell id="Qx_ht0-6rFyomk5N5odI-36" value="" style="outlineConnect=0;dashed=0;verticalLabelPosition=bottom;verticalAlign=top;align=center;html=1;shape=mxgraph.aws3.elasticache;fillColor=#2E73B8;gradientColor=none;" vertex="1" parent="1">
          <mxGeometry x="1008.8599999999999" y="700" width="83.33" height="100" as="geometry" />
        </mxCell>
        <mxCell id="Qx_ht0-6rFyomk5N5odI-37" value="Elastic Cache" style="text;html=1;align=center;verticalAlign=middle;whiteSpace=wrap;rounded=0;fontStyle=1;fontSize=17;" vertex="1" parent="1">
          <mxGeometry x="945.52" y="800" width="190" height="30" as="geometry" />
        </mxCell>
        <mxCell id="Qx_ht0-6rFyomk5N5odI-38" style="edgeStyle=orthogonalEdgeStyle;rounded=0;orthogonalLoop=1;jettySize=auto;html=1;exitX=0;exitY=0.5;exitDx=0;exitDy=0;exitPerimeter=0;entryX=0.5;entryY=0;entryDx=0;entryDy=0;entryPerimeter=0;" edge="1" parent="1" source="Qx_ht0-6rFyomk5N5odI-17" target="Qx_ht0-6rFyomk5N5odI-36">
          <mxGeometry relative="1" as="geometry" />
        </mxCell>
        <mxCell id="Qx_ht0-6rFyomk5N5odI-39" value="Auto Scaling group" style="points=[[0,0],[0.25,0],[0.5,0],[0.75,0],[1,0],[1,0.25],[1,0.5],[1,0.75],[1,1],[0.75,1],[0.5,1],[0.25,1],[0,1],[0,0.75],[0,0.5],[0,0.25]];outlineConnect=0;gradientColor=none;html=1;whiteSpace=wrap;fontSize=12;fontStyle=0;container=1;pointerEvents=0;collapsible=0;recursiveResize=0;shape=mxgraph.aws4.groupCenter;grIcon=mxgraph.aws4.group_auto_scaling_group;grStroke=1;strokeColor=#D86613;fillColor=none;verticalAlign=top;align=center;fontColor=#D86613;dashed=1;spacingTop=25;" vertex="1" parent="1">
          <mxGeometry x="970" y="360" width="180" height="170" as="geometry" />
        </mxCell>
        <mxCell id="Qx_ht0-6rFyomk5N5odI-40" value="Auto Scaling group" style="points=[[0,0],[0.25,0],[0.5,0],[0.75,0],[1,0],[1,0.25],[1,0.5],[1,0.75],[1,1],[0.75,1],[0.5,1],[0.25,1],[0,1],[0,0.75],[0,0.5],[0,0.25]];outlineConnect=0;gradientColor=none;html=1;whiteSpace=wrap;fontSize=12;fontStyle=0;container=1;pointerEvents=0;collapsible=0;recursiveResize=0;shape=mxgraph.aws4.groupCenter;grIcon=mxgraph.aws4.group_auto_scaling_group;grStroke=1;strokeColor=#D86613;fillColor=none;verticalAlign=top;align=center;fontColor=#D86613;dashed=1;spacingTop=25;" vertex="1" parent="1">
          <mxGeometry x="1160" y="520" width="120" height="180" as="geometry" />
        </mxCell>
        <mxCell id="Qx_ht0-6rFyomk5N5odI-41" value="Auto Scaling group" style="points=[[0,0],[0.25,0],[0.5,0],[0.75,0],[1,0],[1,0.25],[1,0.5],[1,0.75],[1,1],[0.75,1],[0.5,1],[0.25,1],[0,1],[0,0.75],[0,0.5],[0,0.25]];outlineConnect=0;gradientColor=none;html=1;whiteSpace=wrap;fontSize=12;fontStyle=0;container=1;pointerEvents=0;collapsible=0;recursiveResize=0;shape=mxgraph.aws4.groupCenter;grIcon=mxgraph.aws4.group_auto_scaling_group;grStroke=1;strokeColor=#D86613;fillColor=none;verticalAlign=top;align=center;fontColor=#D86613;dashed=1;spacingTop=25;" vertex="1" parent="1">
          <mxGeometry x="843.47" y="520" width="120" height="180" as="geometry" />
        </mxCell>
        <mxCell id="Qx_ht0-6rFyomk5N5odI-42" style="edgeStyle=orthogonalEdgeStyle;rounded=0;orthogonalLoop=1;jettySize=auto;html=1;exitX=1;exitY=0.79;exitDx=0;exitDy=0;exitPerimeter=0;" edge="1" parent="1" source="Qx_ht0-6rFyomk5N5odI-43" target="Qx_ht0-6rFyomk5N5odI-47">
          <mxGeometry relative="1" as="geometry" />
        </mxCell>
        <mxCell id="Qx_ht0-6rFyomk5N5odI-43" value="" style="outlineConnect=0;dashed=0;verticalLabelPosition=bottom;verticalAlign=top;align=center;html=1;shape=mxgraph.aws3.sqs;fillColor=#D9A741;gradientColor=none;" vertex="1" parent="1">
          <mxGeometry x="-140" y="433.56999999999994" width="76.5" height="93" as="geometry" />
        </mxCell>
        <mxCell id="Qx_ht0-6rFyomk5N5odI-87" style="edgeStyle=orthogonalEdgeStyle;rounded=0;orthogonalLoop=1;jettySize=auto;html=1;exitX=0.5;exitY=1;exitDx=0;exitDy=0;exitPerimeter=0;" edge="1" parent="1" source="Qx_ht0-6rFyomk5N5odI-44">
          <mxGeometry relative="1" as="geometry">
            <mxPoint x="1190.0000000000005" y="1010" as="targetPoint" />
            <Array as="points">
              <mxPoint x="-215" y="1160" />
              <mxPoint x="1191" y="1160" />
              <mxPoint x="1191" y="1010" />
            </Array>
          </mxGeometry>
        </mxCell>
        <mxCell id="Qx_ht0-6rFyomk5N5odI-44" value="" style="outlineConnect=0;dashed=0;verticalLabelPosition=bottom;verticalAlign=top;align=center;html=1;shape=mxgraph.aws3.lambda;fillColor=#F58534;gradientColor=none;" vertex="1" parent="1">
          <mxGeometry x="-253.25" y="654.9999999999999" width="76.5" height="93" as="geometry" />
        </mxCell>
        <mxCell id="Qx_ht0-6rFyomk5N5odI-45" value="" style="outlineConnect=0;dashed=0;verticalLabelPosition=bottom;verticalAlign=top;align=center;html=1;shape=mxgraph.aws3.ec2;fillColor=#F58534;gradientColor=none;" vertex="1" parent="1">
          <mxGeometry x="-21.200000000000045" y="655" width="95.89" height="116.57" as="geometry" />
        </mxCell>
        <mxCell id="Qx_ht0-6rFyomk5N5odI-47" value="Auto Scaling group" style="points=[[0,0],[0.25,0],[0.5,0],[0.75,0],[1,0],[1,0.25],[1,0.5],[1,0.75],[1,1],[0.75,1],[0.5,1],[0.25,1],[0,1],[0,0.75],[0,0.5],[0,0.25]];outlineConnect=0;gradientColor=none;html=1;whiteSpace=wrap;fontSize=12;fontStyle=0;container=1;pointerEvents=0;collapsible=0;recursiveResize=0;shape=mxgraph.aws4.groupCenter;grIcon=mxgraph.aws4.group_auto_scaling_group;grStroke=1;strokeColor=#D86613;fillColor=none;verticalAlign=top;align=center;fontColor=#D86613;dashed=1;spacingTop=25;" vertex="1" parent="1">
          <mxGeometry x="-33.25" y="605" width="120" height="180" as="geometry" />
        </mxCell>
        <mxCell id="Qx_ht0-6rFyomk5N5odI-48" value="EC2&amp;nbsp;&lt;div&gt;(Background Workers)&lt;/div&gt;" style="text;html=1;align=center;verticalAlign=middle;whiteSpace=wrap;rounded=0;fontStyle=1;fontSize=17;" vertex="1" parent="1">
          <mxGeometry x="-72.25" y="795" width="190" height="30" as="geometry" />
        </mxCell>
        <mxCell id="Qx_ht0-6rFyomk5N5odI-49" value="Lambda Functions" style="text;html=1;align=center;verticalAlign=middle;whiteSpace=wrap;rounded=0;fontStyle=1;fontSize=17;" vertex="1" parent="1">
          <mxGeometry x="-310" y="765" width="190" height="30" as="geometry" />
        </mxCell>
        <mxCell id="Qx_ht0-6rFyomk5N5odI-50" value="SQS" style="text;html=1;align=center;verticalAlign=middle;whiteSpace=wrap;rounded=0;fontStyle=1;fontSize=17;" vertex="1" parent="1">
          <mxGeometry x="-140.25" y="536" width="76.75" height="30" as="geometry" />
        </mxCell>
        <mxCell id="Qx_ht0-6rFyomk5N5odI-51" value="" style="outlineConnect=0;dashed=0;verticalLabelPosition=bottom;verticalAlign=top;align=center;html=1;shape=mxgraph.aws3.ec2;fillColor=#F58534;gradientColor=none;" vertex="1" parent="1">
          <mxGeometry x="487.04999999999995" y="440" width="95.89" height="116.57" as="geometry" />
        </mxCell>
        <mxCell id="Qx_ht0-6rFyomk5N5odI-52" value="EC2&amp;nbsp;&lt;div&gt;(Write API)&lt;/div&gt;" style="text;html=1;align=center;verticalAlign=middle;whiteSpace=wrap;rounded=0;fontStyle=1;fontSize=17;" vertex="1" parent="1">
          <mxGeometry x="410" y="565" width="170" height="30" as="geometry" />
        </mxCell>
        <mxCell id="Qx_ht0-6rFyomk5N5odI-53" style="edgeStyle=orthogonalEdgeStyle;rounded=0;orthogonalLoop=1;jettySize=auto;html=1;exitX=0;exitY=0.5;exitDx=0;exitDy=0;" edge="1" parent="1" source="Qx_ht0-6rFyomk5N5odI-54" target="Qx_ht0-6rFyomk5N5odI-43">
          <mxGeometry relative="1" as="geometry" />
        </mxCell>
        <mxCell id="Qx_ht0-6rFyomk5N5odI-54" value="Auto Scaling group" style="points=[[0,0],[0.25,0],[0.5,0],[0.75,0],[1,0],[1,0.25],[1,0.5],[1,0.75],[1,1],[0.75,1],[0.5,1],[0.25,1],[0,1],[0,0.75],[0,0.5],[0,0.25]];outlineConnect=0;gradientColor=none;html=1;whiteSpace=wrap;fontSize=12;fontStyle=0;container=1;pointerEvents=0;collapsible=0;recursiveResize=0;shape=mxgraph.aws4.groupCenter;grIcon=mxgraph.aws4.group_auto_scaling_group;grStroke=1;strokeColor=#D86613;fillColor=none;verticalAlign=top;align=center;fontColor=#D86613;dashed=1;spacingTop=25;" vertex="1" parent="1">
          <mxGeometry x="475" y="390" width="120" height="180" as="geometry" />
        </mxCell>
        <mxCell id="Qx_ht0-6rFyomk5N5odI-55" style="edgeStyle=orthogonalEdgeStyle;rounded=0;orthogonalLoop=1;jettySize=auto;html=1;exitX=0;exitY=0.79;exitDx=0;exitDy=0;exitPerimeter=0;entryX=0.5;entryY=0;entryDx=0;entryDy=0;entryPerimeter=0;" edge="1" parent="1" source="Qx_ht0-6rFyomk5N5odI-43" target="Qx_ht0-6rFyomk5N5odI-44">
          <mxGeometry relative="1" as="geometry" />
        </mxCell>
        <mxCell id="Qx_ht0-6rFyomk5N5odI-59" value="" style="swimlane;startSize=0;dashed=1;dashPattern=1 4;strokeWidth=4;" vertex="1" parent="1">
          <mxGeometry x="650" y="860" width="420" height="220" as="geometry" />
        </mxCell>
        <mxCell id="Qx_ht0-6rFyomk5N5odI-60" value="" style="swimlane;startSize=0;dashed=1;dashPattern=1 4;strokeWidth=4;" vertex="1" parent="1">
          <mxGeometry x="1003.02" y="1350" width="420" height="220" as="geometry" />
        </mxCell>
        <mxCell id="Qx_ht0-6rFyomk5N5odI-63" value="Sharding" style="text;html=1;align=center;verticalAlign=middle;whiteSpace=wrap;rounded=0;fontStyle=1;fontSize=17;" vertex="1" parent="Qx_ht0-6rFyomk5N5odI-60">
          <mxGeometry x="113.25" y="10" width="190" height="30" as="geometry" />
        </mxCell>
        <mxCell id="Qx_ht0-6rFyomk5N5odI-97" value="" style="outlineConnect=0;dashed=0;verticalLabelPosition=bottom;verticalAlign=top;align=center;html=1;shape=mxgraph.aws3.rds;fillColor=#2E73B8;gradientColor=none;" vertex="1" parent="Qx_ht0-6rFyomk5N5odI-60">
          <mxGeometry x="56.98000000000002" y="50" width="106.67" height="120" as="geometry" />
        </mxCell>
        <mxCell id="Qx_ht0-6rFyomk5N5odI-100" value="" style="outlineConnect=0;dashed=0;verticalLabelPosition=bottom;verticalAlign=top;align=center;html=1;shape=mxgraph.aws3.rds;fillColor=#2E73B8;gradientColor=none;" vertex="1" parent="Qx_ht0-6rFyomk5N5odI-60">
          <mxGeometry x="246.98000000000002" y="50" width="106.67" height="120" as="geometry" />
        </mxCell>
        <mxCell id="Qx_ht0-6rFyomk5N5odI-98" value="&lt;span style=&quot;font-size: 14px; font-weight: 400;&quot;&gt;Customers&amp;nbsp;&lt;/span&gt;&lt;br style=&quot;font-size: 14px; font-weight: 400;&quot;&gt;&lt;span style=&quot;font-size: 14px; font-weight: 400;&quot;&gt;A-M&amp;nbsp;SQL&lt;/span&gt;" style="text;html=1;align=center;verticalAlign=middle;whiteSpace=wrap;rounded=0;fontStyle=1;fontSize=17;" vertex="1" parent="Qx_ht0-6rFyomk5N5odI-60">
          <mxGeometry x="25.320000000000018" y="180" width="170" height="30" as="geometry" />
        </mxCell>
        <mxCell id="Qx_ht0-6rFyomk5N5odI-99" value="&lt;span style=&quot;font-weight: 400; font-size: 14px;&quot;&gt;Customers&amp;nbsp;&lt;/span&gt;&lt;br style=&quot;font-weight: 400; font-size: 14px;&quot;&gt;&lt;span style=&quot;font-weight: 400; font-size: 14px;&quot;&gt;N-Z&amp;nbsp;&lt;/span&gt;&lt;span style=&quot;font-weight: 400; font-size: 14px;&quot;&gt;SQL&lt;/span&gt;" style="text;html=1;align=center;verticalAlign=middle;whiteSpace=wrap;rounded=0;fontStyle=1;fontSize=17;" vertex="1" parent="Qx_ht0-6rFyomk5N5odI-60">
          <mxGeometry x="215.32000000000002" y="180" width="170" height="30" as="geometry" />
        </mxCell>
        <mxCell id="Qx_ht0-6rFyomk5N5odI-64" value="" style="swimlane;startSize=0;dashed=1;dashPattern=1 4;strokeWidth=4;" vertex="1" parent="1">
          <mxGeometry x="1003.02" y="1570" width="420" height="220" as="geometry" />
        </mxCell>
        <mxCell id="Qx_ht0-6rFyomk5N5odI-67" value="Federation" style="text;html=1;align=center;verticalAlign=middle;whiteSpace=wrap;rounded=0;fontStyle=1;fontSize=17;" vertex="1" parent="Qx_ht0-6rFyomk5N5odI-64">
          <mxGeometry x="113.25" y="10" width="190" height="30" as="geometry" />
        </mxCell>
        <mxCell id="Qx_ht0-6rFyomk5N5odI-103" value="" style="outlineConnect=0;dashed=0;verticalLabelPosition=bottom;verticalAlign=top;align=center;html=1;shape=mxgraph.aws3.rds;fillColor=#2E73B8;gradientColor=none;" vertex="1" parent="Qx_ht0-6rFyomk5N5odI-64">
          <mxGeometry x="61.670000000000016" y="47" width="106.67" height="120" as="geometry" />
        </mxCell>
        <mxCell id="Qx_ht0-6rFyomk5N5odI-104" value="" style="outlineConnect=0;dashed=0;verticalLabelPosition=bottom;verticalAlign=top;align=center;html=1;shape=mxgraph.aws3.rds;fillColor=#2E73B8;gradientColor=none;" vertex="1" parent="Qx_ht0-6rFyomk5N5odI-64">
          <mxGeometry x="251.67000000000002" y="47" width="106.67" height="120" as="geometry" />
        </mxCell>
        <mxCell id="Qx_ht0-6rFyomk5N5odI-101" value="&lt;font style=&quot;font-weight: 400; font-size: 14px;&quot;&gt;Customers&amp;nbsp;&lt;/font&gt;&lt;div style=&quot;font-size: 12px; font-weight: 400;&quot;&gt;&lt;font style=&quot;font-size: 14px;&quot;&gt;SQL&lt;/font&gt;&lt;/div&gt;" style="text;html=1;align=center;verticalAlign=middle;whiteSpace=wrap;rounded=0;fontStyle=1;fontSize=17;" vertex="1" parent="Qx_ht0-6rFyomk5N5odI-64">
          <mxGeometry x="26.980000000000018" y="176" width="170" height="30" as="geometry" />
        </mxCell>
        <mxCell id="Qx_ht0-6rFyomk5N5odI-102" value="&lt;span style=&quot;font-weight: 400; font-size: 14px;&quot;&gt;Products&amp;nbsp;&lt;/span&gt;&lt;div style=&quot;font-size: 12px; font-weight: 400;&quot;&gt;&lt;span style=&quot;font-size: 14px;&quot;&gt;SQL&lt;/span&gt;&lt;/div&gt;" style="text;html=1;align=center;verticalAlign=middle;whiteSpace=wrap;rounded=0;fontStyle=1;fontSize=17;" vertex="1" parent="Qx_ht0-6rFyomk5N5odI-64">
          <mxGeometry x="216.98000000000002" y="176" width="170" height="30" as="geometry" />
        </mxCell>
        <mxCell id="Qx_ht0-6rFyomk5N5odI-70" value="" style="endArrow=none;dashed=1;html=1;rounded=0;exitX=0;exitY=1;exitDx=0;exitDy=0;entryX=0.5;entryY=1;entryDx=0;entryDy=0;" edge="1" parent="1" source="Qx_ht0-6rFyomk5N5odI-60" target="Qx_ht0-6rFyomk5N5odI-59">
          <mxGeometry width="50" height="50" relative="1" as="geometry">
            <mxPoint x="780" y="1260" as="sourcePoint" />
            <mxPoint x="770" y="1050" as="targetPoint" />
          </mxGeometry>
        </mxCell>
        <mxCell id="Qx_ht0-6rFyomk5N5odI-72" value="" style="outlineConnect=0;dashed=0;verticalLabelPosition=bottom;verticalAlign=top;align=center;html=1;shape=mxgraph.aws3.redshift;fillColor=#2E73B8;gradientColor=none;" vertex="1" parent="1">
          <mxGeometry x="220.25" y="901.03" width="117.5" height="130.56" as="geometry" />
        </mxCell>
        <mxCell id="Qx_ht0-6rFyomk5N5odI-76" value="RedShift" style="text;html=1;align=center;verticalAlign=middle;whiteSpace=wrap;rounded=0;fontStyle=1;fontSize=17;" vertex="1" parent="1">
          <mxGeometry x="194" y="1040" width="170" height="30" as="geometry" />
        </mxCell>
        <mxCell id="Qx_ht0-6rFyomk5N5odI-78" value="" style="outlineConnect=0;dashed=0;verticalLabelPosition=bottom;verticalAlign=top;align=center;html=1;shape=mxgraph.aws3.redshift;fillColor=#2E73B8;gradientColor=none;" vertex="1" parent="1">
          <mxGeometry x="1383.25" y="658.29" width="63.5" height="70.56" as="geometry" />
        </mxCell>
        <mxCell id="Qx_ht0-6rFyomk5N5odI-79" value="RedShift" style="text;html=1;align=center;verticalAlign=middle;whiteSpace=wrap;rounded=0;fontStyle=1;fontSize=17;" vertex="1" parent="1">
          <mxGeometry x="1330" y="738.29" width="170" height="30" as="geometry" />
        </mxCell>
        <mxCell id="Qx_ht0-6rFyomk5N5odI-81" style="edgeStyle=orthogonalEdgeStyle;rounded=0;orthogonalLoop=1;jettySize=auto;html=1;exitX=1;exitY=0.5;exitDx=0;exitDy=0;exitPerimeter=0;entryX=0;entryY=0.5;entryDx=0;entryDy=0;entryPerimeter=0;" edge="1" parent="1" source="Qx_ht0-6rFyomk5N5odI-17" target="Qx_ht0-6rFyomk5N5odI-78">
          <mxGeometry relative="1" as="geometry" />
        </mxCell>
        <mxCell id="Qx_ht0-6rFyomk5N5odI-82" style="edgeStyle=orthogonalEdgeStyle;rounded=0;orthogonalLoop=1;jettySize=auto;html=1;exitX=0.5;exitY=1;exitDx=0;exitDy=0;exitPerimeter=0;entryX=0.5;entryY=0;entryDx=0;entryDy=0;entryPerimeter=0;" edge="1" parent="1" source="Qx_ht0-6rFyomk5N5odI-45">
          <mxGeometry relative="1" as="geometry">
            <mxPoint x="503.9499999999998" y="881.3600000000001" as="targetPoint" />
            <Array as="points">
              <mxPoint x="27" y="850" />
              <mxPoint x="504" y="850" />
            </Array>
          </mxGeometry>
        </mxCell>
        <mxCell id="Qx_ht0-6rFyomk5N5odI-83" style="edgeStyle=orthogonalEdgeStyle;rounded=0;orthogonalLoop=1;jettySize=auto;html=1;exitX=0.5;exitY=1;exitDx=0;exitDy=0;exitPerimeter=0;entryX=0.5;entryY=0;entryDx=0;entryDy=0;entryPerimeter=0;" edge="1" parent="1" source="Qx_ht0-6rFyomk5N5odI-45" target="Qx_ht0-6rFyomk5N5odI-72">
          <mxGeometry relative="1" as="geometry">
            <Array as="points">
              <mxPoint x="27" y="850" />
              <mxPoint x="279" y="850" />
            </Array>
          </mxGeometry>
        </mxCell>
        <mxCell id="Qx_ht0-6rFyomk5N5odI-84" style="edgeStyle=orthogonalEdgeStyle;rounded=0;orthogonalLoop=1;jettySize=auto;html=1;exitX=1;exitY=0.79;exitDx=0;exitDy=0;exitPerimeter=0;entryX=0.5;entryY=0;entryDx=0;entryDy=0;entryPerimeter=0;" edge="1" parent="1" source="Qx_ht0-6rFyomk5N5odI-44">
          <mxGeometry relative="1" as="geometry">
            <mxPoint x="503.9499999999998" y="881.3600000000001" as="targetPoint" />
            <Array as="points">
              <mxPoint x="-177" y="850" />
              <mxPoint x="504" y="850" />
            </Array>
          </mxGeometry>
        </mxCell>
        <mxCell id="Qx_ht0-6rFyomk5N5odI-85" style="edgeStyle=orthogonalEdgeStyle;rounded=0;orthogonalLoop=1;jettySize=auto;html=1;exitX=1;exitY=0.79;exitDx=0;exitDy=0;exitPerimeter=0;entryX=0.5;entryY=0;entryDx=0;entryDy=0;entryPerimeter=0;" edge="1" parent="1" source="Qx_ht0-6rFyomk5N5odI-44" target="Qx_ht0-6rFyomk5N5odI-72">
          <mxGeometry relative="1" as="geometry">
            <mxPoint x="190" y="920" as="targetPoint" />
            <Array as="points">
              <mxPoint x="-177" y="850" />
              <mxPoint x="279" y="850" />
            </Array>
          </mxGeometry>
        </mxCell>
        <mxCell id="Qx_ht0-6rFyomk5N5odI-86" style="edgeStyle=orthogonalEdgeStyle;rounded=0;orthogonalLoop=1;jettySize=auto;html=1;exitX=0;exitY=0.79;exitDx=0;exitDy=0;exitPerimeter=0;entryX=0.5;entryY=1;entryDx=0;entryDy=0;entryPerimeter=0;" edge="1" parent="1" source="Qx_ht0-6rFyomk5N5odI-45" target="Qx_ht0-6rFyomk5N5odI-8">
          <mxGeometry relative="1" as="geometry">
            <Array as="points">
              <mxPoint x="-21" y="1160" />
              <mxPoint x="1189" y="1160" />
            </Array>
          </mxGeometry>
        </mxCell>
        <mxCell id="Qx_ht0-6rFyomk5N5odI-89" style="edgeStyle=orthogonalEdgeStyle;rounded=0;orthogonalLoop=1;jettySize=auto;html=1;exitX=0.5;exitY=1;exitDx=0;exitDy=0;exitPerimeter=0;entryX=0.5;entryY=0.02;entryDx=0;entryDy=0;entryPerimeter=0;" edge="1" parent="1" source="Qx_ht0-6rFyomk5N5odI-45" target="Qx_ht0-6rFyomk5N5odI-29">
          <mxGeometry relative="1" as="geometry">
            <Array as="points">
              <mxPoint x="27" y="850" />
              <mxPoint x="766" y="850" />
            </Array>
          </mxGeometry>
        </mxCell>
        <mxCell id="Qx_ht0-6rFyomk5N5odI-91" style="edgeStyle=orthogonalEdgeStyle;rounded=0;orthogonalLoop=1;jettySize=auto;html=1;entryX=0;entryY=0.5;entryDx=0;entryDy=0;entryPerimeter=0;exitX=1;exitY=0.79;exitDx=0;exitDy=0;exitPerimeter=0;" edge="1" parent="1" source="Qx_ht0-6rFyomk5N5odI-44" target="Qx_ht0-6rFyomk5N5odI-29">
          <mxGeometry relative="1" as="geometry">
            <mxPoint x="-240" y="1230" as="sourcePoint" />
            <mxPoint x="671" y="1456.5349999999999" as="targetPoint" />
            <Array as="points">
              <mxPoint x="-177" y="850" />
              <mxPoint x="671" y="850" />
              <mxPoint x="671" y="955" />
            </Array>
          </mxGeometry>
        </mxCell>
        <mxCell id="Qx_ht0-6rFyomk5N5odI-92" value="" style="outlineConnect=0;dashed=0;verticalLabelPosition=bottom;verticalAlign=top;align=center;html=1;shape=mxgraph.aws3.dynamo_db;fillColor=#2E73B8;gradientColor=none;" vertex="1" parent="1">
          <mxGeometry x="450" y="886.96" width="108.46" height="122.02" as="geometry" />
        </mxCell>
        <mxCell id="Qx_ht0-6rFyomk5N5odI-93" value="Dynamo DB" style="text;html=1;align=center;verticalAlign=middle;whiteSpace=wrap;rounded=0;fontStyle=1;fontSize=17;" vertex="1" parent="1">
          <mxGeometry x="425" y="1022" width="170" height="30" as="geometry" />
        </mxCell>
        <mxCell id="Qx_ht0-6rFyomk5N5odI-94" value="" style="outlineConnect=0;dashed=0;verticalLabelPosition=bottom;verticalAlign=top;align=center;html=1;shape=mxgraph.aws3.dynamo_db;fillColor=#2E73B8;gradientColor=none;" vertex="1" parent="1">
          <mxGeometry x="1383.25" y="520" width="80" height="90" as="geometry" />
        </mxCell>
        <mxCell id="Qx_ht0-6rFyomk5N5odI-95" style="edgeStyle=orthogonalEdgeStyle;rounded=0;orthogonalLoop=1;jettySize=auto;html=1;exitX=1;exitY=0.5;exitDx=0;exitDy=0;exitPerimeter=0;entryX=0;entryY=0.5;entryDx=0;entryDy=0;entryPerimeter=0;" edge="1" parent="1" source="Qx_ht0-6rFyomk5N5odI-17" target="Qx_ht0-6rFyomk5N5odI-94">
          <mxGeometry relative="1" as="geometry" />
        </mxCell>
        <mxCell id="Qx_ht0-6rFyomk5N5odI-96" value="Dynamo DB" style="text;html=1;align=center;verticalAlign=middle;whiteSpace=wrap;rounded=0;fontStyle=1;fontSize=17;" vertex="1" parent="1">
          <mxGeometry x="1340" y="613.29" width="170" height="30" as="geometry" />
        </mxCell>
      </root>
    </mxGraphModel>
  </diagram>
</mxfile>
